<svg width="512" height="512" viewBox="0 0 512 512" fill="none" xmlns="http://www.w3.org/2000/svg">
<path d="M0 70C0 31.3401 31.3401 0 70 0H442C480.66 0 512 31.3401 512 70V442C512 480.66 480.66 512 442 512H70C31.3401 512 0 480.66 0 442V70Z" fill="#3562D4"/>
<path d="M226.562 125.562C226.562 160.654 198.092 189.125 163 189.125C127.908 189.125 99.4375 160.654 99.4375 125.562C99.4375 90.4707 127.908 62 163 62C198.092 62 226.562 90.4707 226.562 125.562Z" fill="white"/>
<path d="M195.179 203.25H219.5C236.812 203.25 252.305 211.034 262.668 223.293L218.987 234.59C212.352 236.306 207.7 242.47 207.7 249.544V288H71.1875C59.4902 288 50 278.51 50 266.812V259.75C50 228.543 75.2926 203.25 106.5 203.25H130.821C140.665 207.752 151.523 210.312 163 210.312C174.477 210.312 185.379 207.752 195.179 203.25Z" fill="white"/>
<path d="M456 423H421V276.634C421 264.708 411.581 255 400 255H351V283H393V451H456C459.868 451 463 447.868 463 444V430C463 426.132 459.868 423 456 423ZM319.605 227.441L235.605 249.203C229.371 250.817 225 256.618 225 263.277V423H190C186.132 423 183 426.132 183 430V444C183 447.868 186.132 451 190 451H337V241.516C337 232.075 328.442 225.149 319.605 227.441ZM298.5 353C292.703 353 288 346.73 288 339C288 331.269 292.703 325 298.5 325C304.297 325 309 331.269 309 339C309 346.73 304.297 353 298.5 353Z" fill="white"/>
</svg>
