<svg width="686" height="533" viewBox="0 0 686 533" fill="none" xmlns="http://www.w3.org/2000/svg">
<path d="M464.5 266.5C464.5 272.815 468.33 277.937 473.05 277.937C477.77 277.937 481.6 272.815 481.6 266.5C481.6 260.184 477.77 255.062 473.05 255.062C468.33 255.062 464.5 260.184 464.5 266.5Z" fill="#3562D5"/>
<path fill-rule="evenodd" clip-rule="evenodd" d="M57.1667 0.5H628.833C660.394 0.5 686 26.0313 686 57.5V475.5C686 506.969 660.394 532.5 628.833 532.5H57.1667C25.6059 532.5 0 506.969 0 475.5V57.5C0 26.0313 25.6059 0.5 57.1667 0.5ZM209.611 114.5C251.652 114.5 285.833 148.581 285.833 190.5C285.833 232.419 251.652 266.5 209.611 266.5C167.57 266.5 133.389 232.419 133.389 190.5C133.389 148.581 167.57 114.5 209.611 114.5ZM343 395.7C343 408.287 331.09 418.5 316.322 418.5H102.9C88.1319 418.5 76.2222 408.287 76.2222 395.7V372.9C76.2222 335.138 112.07 304.5 156.256 304.5H162.21C176.859 310.556 192.818 314 209.611 314C226.404 314 242.482 310.556 257.012 304.5H262.967C307.152 304.5 343 335.138 343 372.9V395.7ZM572.8 335.125H601.3C604.449 335.125 607 337.684 607 340.844V352.281C607 355.441 604.449 358 601.3 358H550V220.75H515.8V197.875H555.7C565.13 197.875 572.8 205.806 572.8 215.549V335.125ZM421.836 193.139L490.236 175.361C497.432 173.488 504.4 179.146 504.4 186.859V358H384.7C381.551 358 379 355.441 379 352.281V340.844C379 337.684 381.551 335.125 384.7 335.125H413.2V204.637C413.2 199.197 416.759 194.458 421.836 193.139Z" fill="#3562D5"/>
<path d="M316.322 418.5C331.09 418.5 343 408.287 343 395.7V372.9C343 335.138 307.152 304.5 262.967 304.5H257.012C242.482 310.556 226.404 314 209.611 314C192.818 314 176.859 310.556 162.21 304.5H156.256C112.07 304.5 76.2222 335.138 76.2222 372.9V395.7C76.2222 408.287 88.1319 418.5 102.9 418.5H316.322Z" fill="white"/>
<path d="M285.833 190.5C285.833 148.581 251.652 114.5 209.611 114.5C167.57 114.5 133.389 148.581 133.389 190.5C133.389 232.419 167.57 266.5 209.611 266.5C251.652 266.5 285.833 232.419 285.833 190.5Z" fill="white"/>
<path fill-rule="evenodd" clip-rule="evenodd" d="M490.236 175.361L421.836 193.139C416.759 194.458 413.2 199.197 413.2 204.637V335.125H384.7C381.551 335.125 379 337.684 379 340.844V352.281C379 355.441 381.551 358 384.7 358H504.4V186.859C504.4 179.146 497.432 173.488 490.236 175.361ZM464.5 266.5C464.5 272.815 468.33 277.937 473.05 277.937C477.77 277.937 481.6 272.815 481.6 266.5C481.6 260.184 477.77 255.062 473.05 255.062C468.33 255.062 464.5 260.184 464.5 266.5Z" fill="white"/>
<path d="M601.3 335.125H572.8V215.549C572.8 205.806 565.13 197.875 555.7 197.875H515.8V220.75H550V358H601.3C604.449 358 607 355.441 607 352.281V340.844C607 337.684 604.449 335.125 601.3 335.125Z" fill="white"/>
</svg>
